<svg width="18" height="18" viewBox="0 0 18 18" fill="none" xmlns="http://www.w3.org/2000/svg">
<g clip-path="url(#clip0_8672_7365)">
<path d="M18 9C18 13.9706 13.9706 18 9 18C4.02937 18 0 13.9706 0 9C0 4.02937 4.02937 0 9 0C13.9706 0 18 4.02937 18 9Z" fill="#84DEEA"/>
<path d="M15.8574 4.79989C15.7944 4.97457 15.6014 5.06507 15.4267 5.0019C14.5558 4.68714 13.6652 4.6057 12.9188 4.77256C12.4639 4.87432 12.1027 5.06068 11.8589 5.31281C11.6137 5.85677 11.3089 6.37492 10.9468 6.85653L10.1695 7.88993L8.8252 6.87891L9.60248 5.84551C10.2857 4.93722 10.7674 3.89956 11.0225 2.80161C11.0994 2.47051 11.0753 2.12774 10.9863 1.79966C10.9662 1.72523 10.9674 1.65327 10.9935 1.5879C11.1031 1.31228 11.6105 1.25542 12.1269 1.46073C12.6432 1.66617 12.9729 2.05605 12.8634 2.33167C12.8569 2.34774 12.8492 2.36298 12.8401 2.37768C12.6597 2.66895 12.5217 2.98357 12.465 3.32154C12.4106 3.64509 12.3366 3.96438 12.2439 4.2779C12.408 4.21226 12.5843 4.15801 12.7722 4.11599C13.6417 3.92153 14.6658 4.01148 15.6555 4.36909C15.8301 4.43253 15.9206 4.6252 15.8574 4.79989Z" fill="#86523E"/>
<path d="M12.9507 15.1383C12.2357 15.8623 11.0509 16.7269 8.93784 17.7671C8.69889 17.8848 8.45376 17.9871 8.18844 17.9633C4.26673 17.6128 1.06971 14.7473 0.221291 10.991C0.149743 10.6739 0.17611 10.3426 0.291604 10.0389C1.20333 7.64041 2.50507 5.18332 3.14379 4.35935C4.37206 2.77484 6.72877 2.50774 8.41105 3.76142C9.07765 4.25827 9.54525 4.9191 9.79615 5.63733C10.0315 6.31107 10.6487 6.77524 11.3614 6.81452C12.121 6.8564 12.89 7.1165 13.548 7.6249C17.1286 10.3921 13.939 14.1377 12.9507 15.1383Z" fill="#E43950"/>
<path d="M6.49953 16.5494C8.09255 17.854 8.90224 17.7845 8.90224 17.7845C8.69845 17.8903 8.47542 17.9875 8.23922 17.9676C4.22193 17.6314 0.955421 14.6569 0.177039 10.782C0.13996 10.5977 -0.0985803 7.49186 3.03376 4.227C4.16878 3.04377 5.90792 2.64909 7.43571 3.22683C6.48168 3.75266 5.62076 4.48394 4.92354 5.41105C2.28298 8.92201 3.10064 13.7659 6.49953 16.5494Z" fill="#C92E43"/>
<path d="M14.0625 10.7227C14.0625 11.7905 13.5115 12.6562 12.832 12.6562C12.1525 12.6562 11.6016 11.7905 11.6016 10.7227C11.6016 9.65479 12.1525 8.78906 12.832 8.78906C13.5115 8.78906 14.0625 9.65479 14.0625 10.7227Z" fill="#EA5569"/>
<path d="M15.5015 5.91069C14.5954 5.83282 13.8325 5.35945 13.417 4.7048C13.2839 4.49537 13.3073 4.22429 13.4741 4.04054C13.9951 3.4665 14.8278 3.13018 15.7337 3.20819C16.7945 3.29924 16.8979 4.29748 17.9997 4.76413C17.5223 5.52548 16.5622 6.00187 15.5015 5.91069Z" fill="#08B772"/>
<path d="M15.8581 4.79982C15.7951 4.9745 15.6021 5.065 15.4275 5.00183C14.7422 4.75409 14.0448 4.65164 13.415 4.70012C13.2854 4.49138 13.3093 4.22304 13.4749 4.04066C13.4807 4.03421 13.4869 4.02789 13.4928 4.02157C14.1824 3.98848 14.9284 4.10603 15.6561 4.36902C15.8308 4.43246 15.9213 4.62513 15.8581 4.79982Z" fill="#06995F"/>
</g>
<defs>
<clipPath id="clip0_8672_7365">
<rect width="18" height="18" fill="white"/>
</clipPath>
</defs>
</svg>
