<svg width="18" height="18" viewBox="0 0 18 18" fill="none" xmlns="http://www.w3.org/2000/svg">
<g clip-path="url(#clip0_8672_8621)">
<path d="M18 9C18 13.9706 13.9706 18 9 18C7.87267 18 6.79395 17.7921 5.79941 17.4136C4.88754 15.0179 2.9821 13.1125 0.586533 12.2006C0.207916 11.2061 0 10.1273 0 9C0 4.02937 4.02937 0 9 0C13.9706 0 18 4.02937 18 9Z" fill="#08B772"/>
<path d="M16.9185 6.30159L12.9895 10.2306L5.80441 17.4156C3.40445 16.5038 1.49585 14.5952 0.583984 12.1952L11.698 1.08116C13.1396 -0.360386 15.4769 -0.360386 16.9185 1.08116C18.36 2.5227 18.36 4.86004 16.9185 6.30159Z" fill="#FCB30B"/>
<path d="M16.9184 6.30168L12.9894 10.2307L5.80435 17.4157C4.82218 17.0425 3.9224 16.5022 3.13934 15.8297C3.13262 15.8219 3.12602 15.8141 3.11929 15.8062C2.02382 14.5218 2.11116 12.6071 3.30483 11.4135L12.6675 2.05079C13.9434 0.774869 15.9208 0.628476 17.358 1.61107C18.3407 3.04835 18.1943 5.02575 16.9184 6.30168ZM16.8746 7.38287C16.6804 7.38287 16.523 7.54025 16.523 7.73443C16.523 7.92862 16.6804 8.08599 16.8746 8.08599C17.0688 8.08599 17.2262 7.92862 17.2262 7.73443C17.2262 7.54025 17.0688 7.38287 16.8746 7.38287ZM17.5777 7.03131C17.7719 7.03131 17.9293 6.87393 17.9293 6.67975C17.9293 6.48556 17.7719 6.32818 17.5777 6.32818C17.3835 6.32818 17.2262 6.48556 17.2262 6.67975C17.2262 6.87393 17.3835 7.03131 17.5777 7.03131ZM17.648 9.14068C17.4538 9.14068 17.2965 9.29806 17.2965 9.49224C17.2965 9.68643 17.4538 9.84381 17.648 9.84381C17.8422 9.84381 17.9996 9.68643 17.9996 9.49224C17.9996 9.29806 17.8422 9.14068 17.648 9.14068Z" fill="#FDBF43"/>
<path d="M9.02106 9.26467C9.6183 10.299 9.92756 11.329 9.89914 12.0217C9.89337 12.1629 9.74052 12.251 9.61542 12.1855C9.00128 11.8638 8.26396 11.0808 7.66672 10.0466C7.06961 9.01226 6.76034 7.98215 6.78877 7.2896C6.79454 7.14843 6.94725 7.06012 7.07249 7.12577C7.68649 7.44753 8.42395 8.2303 9.02106 9.26467ZM4.17224 10.026C4.04713 9.96038 3.89429 10.0485 3.88852 10.1897C3.86009 10.8824 4.16936 11.9125 4.76646 12.9467C5.36371 13.9811 6.10103 14.764 6.71516 15.0856C6.84027 15.1513 6.99312 15.0631 6.99888 14.9219C7.02731 14.2293 6.71805 13.1991 6.1208 12.1649C5.52369 11.1306 4.78624 10.3478 4.17224 10.026ZM9.97275 4.22551C9.8475 4.15987 9.69479 4.24817 9.68902 4.38935C9.6606 5.08203 9.96986 6.112 10.567 7.14637C11.1642 8.18059 11.9015 8.9635 12.5157 9.28527C12.6408 9.35077 12.7935 9.26261 12.7994 9.12143C12.8278 8.42874 12.5186 7.39864 11.9213 6.36441C11.3242 5.33005 10.5867 4.54727 9.97275 4.22551ZM14.8216 3.46416C14.2245 2.4298 13.487 1.64702 12.873 1.32526C12.7478 1.25975 12.595 1.34792 12.5893 1.48909C12.5609 2.18178 12.8701 3.21175 13.4672 4.24611C14.0645 5.28034 14.8018 6.06325 15.4159 6.38501C15.541 6.45052 15.6937 6.36235 15.6996 6.22118C15.7281 5.52849 15.4188 4.49852 14.8216 3.46416Z" fill="#FDA800"/>
<path d="M15.7001 6.2213C15.6942 6.36247 15.5415 6.45064 15.4164 6.38513C15.2299 6.28735 15.0321 6.147 14.8302 5.97012C14.9063 5.25272 14.675 4.17729 14.1569 3.07303C13.8843 2.49185 13.5668 1.97701 13.2398 1.56104C13.7662 1.95792 14.3398 2.62904 14.822 3.46428C15.4192 4.49864 15.7285 5.52861 15.7001 6.2213ZM4.5127 10.2422C4.84682 10.6624 5.17174 11.1866 5.4501 11.7798C5.96564 12.8787 6.19731 13.9491 6.12453 14.6666C6.32805 14.8454 6.52759 14.9874 6.71559 15.0859C6.8407 15.1514 6.99355 15.0632 6.99931 14.9221C7.02774 14.2294 6.71848 13.1994 6.12123 12.165C5.63097 11.3158 5.04622 10.6364 4.5127 10.2422ZM7.34167 7.29082C7.69502 7.72189 8.04027 8.27066 8.33374 8.89619C8.84254 9.98055 9.07477 11.0372 9.01091 11.7543C9.21924 11.939 9.42358 12.0848 9.61584 12.1856C9.74095 12.2511 9.8938 12.163 9.89957 12.0218C9.92799 11.3291 9.61873 10.2991 9.02148 9.26479C8.50925 8.37764 7.89401 7.67575 7.34167 7.29082ZM9.97716 4.22783C10.3982 4.68555 10.8194 5.31987 11.1677 6.06227C11.649 7.08798 11.8829 8.08897 11.8527 8.8013C12.0812 9.011 12.3058 9.17525 12.5161 9.28539C12.6412 9.35089 12.7939 9.26273 12.7998 9.12155C12.8282 8.42886 12.519 7.39876 11.9217 6.36453C11.3259 5.3325 10.5905 4.55083 9.97716 4.22783Z" fill="#FC9302"/>
</g>
<defs>
<clipPath id="clip0_8672_8621">
<rect width="18" height="18" fill="white"/>
</clipPath>
</defs>
</svg>
