<svg width="18" height="18" viewBox="0 0 18 18" fill="none" xmlns="http://www.w3.org/2000/svg">
<g clip-path="url(#clip0_8672_5935)">
<path d="M18 9C18 13.9706 13.9706 18 9 18C4.02937 18 0 13.9706 0 9C0 4.02937 4.02937 0 9 0C13.9706 0 18 4.02937 18 9Z" fill="#84DEEA"/>
<path d="M14.7655 1.40625V9.84375L14.7631 9.84554C14.757 9.92024 14.7379 9.99687 14.7027 10.0731L11.1557 17.7395C10.465 17.9094 9.74301 18 8.99992 18C8.49757 18 8.00484 17.9588 7.52487 17.8797C7.32451 17.8466 7.25763 17.5231 7.06194 17.4771C6.86583 17.4309 6.54077 17.6622 6.34975 17.6034C4.14136 16.9239 2.29524 15.4171 1.17285 13.4451L3.51555 8.4375L14.7655 1.40625Z" fill="#86523E"/>
<path d="M14.7658 3.71484V5.38998L8.93175 17.9995C8.67645 17.9976 8.42377 17.9851 8.17383 17.9623L14.7658 3.71484ZM10.4062 17.8902L14.7658 8.46767V6.79239L9.58928 17.9807C9.86517 17.9629 10.1376 17.9324 10.4062 17.8902Z" fill="#BB7C63"/>
<path d="M14.7027 1.6356L11.0352 9.56251L7.54005 17.1167C7.34299 17.5428 6.8622 17.7569 6.41245 17.6222C2.70319 16.5107 0 13.0711 0 9.00001C0 8.3374 0.0722351 7.69168 0.208191 7.06985L8.4375 3.2624L12.8018 1.24325C12.8455 1.317 12.9299 1.36383 13.0244 1.3516C13.1177 1.33952 13.1947 1.26701 13.2139 1.175C13.2229 1.1327 13.2188 1.09246 13.2063 1.05607L13.8332 0.766031C14.3865 0.51005 14.9587 1.0823 14.7027 1.6356Z" fill="#FD3D96"/>
<path d="M14.0653 2.6303C13.8507 2.63881 13.6485 2.58319 13.4769 2.48088C13.431 2.62673 13.3531 2.76488 13.2424 2.88463C12.8925 3.26338 12.3324 3.33164 11.9073 3.07593C11.8615 3.22219 11.7834 3.36103 11.6723 3.48119C11.3224 3.8598 10.7623 3.92806 10.3371 3.67235C10.2914 3.81874 10.2132 3.95745 10.1023 4.07761C9.75235 4.45623 9.19218 4.52448 8.76701 4.26877C8.72115 4.41516 8.64314 4.554 8.53218 4.67403C8.18213 5.05278 7.6221 5.1209 7.19693 4.86533C7.15106 5.01158 7.07306 5.15042 6.96196 5.27059C6.61205 5.6492 6.05188 5.71746 5.62685 5.46175C5.58098 5.60814 5.50298 5.74684 5.39188 5.86701C5.04196 6.24562 4.4818 6.31388 4.05676 6.05817C4.01089 6.20456 3.93275 6.3434 3.82179 6.46343C3.47188 6.84204 2.91171 6.9103 2.48654 6.65459C2.44081 6.80098 2.36267 6.93982 2.25171 7.05985C1.90179 7.4386 1.34163 7.50685 0.916458 7.25115C0.87059 7.39754 0.792587 7.53624 0.681625 7.65641C0.510239 7.8418 0.288315 7.95262 0.0566406 7.98751C0.0845184 7.38834 0.488129 5.81812 0.681488 5.60883C1.0314 5.23021 1.59157 5.16196 2.01674 5.41767C2.06261 5.27127 2.14061 5.13243 2.25157 5.01241C2.60162 4.63379 3.16165 4.56554 3.58682 4.82125C3.63269 4.67485 3.71069 4.53601 3.82179 4.41599C4.17171 4.03723 4.73187 3.96898 5.15691 4.22469C5.20277 4.07843 5.28078 3.93959 5.39188 3.81943C5.74179 3.44081 6.30196 3.37256 6.72699 3.62827C6.77286 3.48188 6.851 3.34317 6.96196 3.22301C7.31187 2.84439 7.87204 2.77614 8.29721 3.03185C8.34294 2.88545 8.42108 2.74662 8.53204 2.62659C8.88196 2.24784 9.44212 2.17972 9.86729 2.43529C9.91316 2.28903 9.99117 2.1502 10.1021 2.03003C10.4522 1.65142 11.0122 1.58316 11.4374 1.83887C11.4832 1.69248 11.5612 1.55377 11.6723 1.43361C12.0212 1.05609 12.579 0.987292 13.0036 1.24025C13.1356 0.822497 13.5181 0.512271 13.981 0.494006C14.571 0.470798 15.0681 0.930163 15.0913 1.51999C15.1146 2.10996 14.6553 2.60709 14.0653 2.6303Z" fill="#FDE5BD"/>
<path d="M14.2827 2.59953C14.3538 2.73549 14.3967 2.88875 14.4031 3.05217C14.4234 3.56743 14.0756 4.01169 13.5942 4.13157C13.6652 4.26739 13.7082 4.42079 13.7147 4.58421C13.735 5.09947 13.3871 5.54373 12.9058 5.66348C12.9768 5.79944 13.0198 5.95283 13.0262 6.11625C13.0466 6.63138 12.6987 7.07577 12.2172 7.19552C12.2884 7.33148 12.3314 7.48474 12.3377 7.64816C12.358 8.16342 12.0101 8.60768 11.5288 8.72757C11.5999 8.86339 11.6428 9.01678 11.6492 9.1802C11.6696 9.69546 11.3217 10.1397 10.8404 10.2595C10.9114 10.3954 10.9544 10.5488 10.9608 10.7121C10.9811 11.2274 10.6333 11.6718 10.1519 11.7915C10.2229 11.9275 10.2659 12.0807 10.2724 12.2442C10.2927 12.7594 9.94485 13.2037 9.46338 13.3236C9.53452 13.4594 9.5775 13.6128 9.58395 13.7762C9.60428 14.2913 9.25642 14.7357 8.77495 14.8555C8.84608 14.9914 8.88907 15.1447 8.89552 15.3081C8.91585 15.8234 8.56799 16.2676 8.08652 16.3875C8.15765 16.5233 8.20064 16.6767 8.20709 16.8401C8.22549 17.3088 7.9393 17.7185 7.52512 17.879C7.12384 17.8128 6.73135 17.7206 6.34985 17.6031C6.18547 17.4234 6.0811 17.1869 6.0708 16.9243C6.05048 16.4091 6.39833 15.9648 6.87967 15.8451C6.80867 15.7091 6.76569 15.5557 6.75923 15.3923C6.73891 14.8772 7.08676 14.4328 7.5681 14.313C7.4971 14.1771 7.45412 14.0238 7.44766 13.8604C7.42734 13.3451 7.77519 12.9009 8.25653 12.781C8.18553 12.6452 8.14255 12.4918 8.13609 12.3283C8.11577 11.8131 8.46362 11.3688 8.9451 11.2491C8.87396 11.1131 8.83098 10.9597 8.82466 10.7963C8.80434 10.2812 9.15205 9.83677 9.63353 9.71702C9.56239 9.58107 9.51955 9.42781 9.51309 9.26439C9.49277 8.74913 9.84062 8.30487 10.322 8.18498C10.2508 8.04916 10.208 7.89576 10.2015 7.73234C10.1812 7.21708 10.5291 6.77282 11.0104 6.65307C10.9394 6.51712 10.8964 6.36386 10.89 6.20044C10.8696 5.68518 11.2175 5.24078 11.699 5.12103C11.6278 4.98521 11.5848 4.83181 11.5785 4.66839C11.5582 4.15327 11.9059 3.70887 12.3874 3.58912C12.3272 3.47418 12.2876 3.34674 12.2729 3.21133C12.1458 3.18922 12.0218 3.14459 11.9076 3.07592C11.8617 3.22232 11.7837 3.36116 11.6727 3.48118C11.3227 3.8598 10.7626 3.92805 10.3375 3.67248C10.2916 3.81874 10.2136 3.95758 10.1025 4.0776C9.75259 4.45636 9.19243 4.52461 8.7674 4.2689C8.72153 4.4153 8.64352 4.554 8.53242 4.67416C8.18251 5.05278 7.62234 5.12103 7.19731 4.86532C7.15144 5.01172 7.0733 5.15042 6.96234 5.27058C6.61243 5.6492 6.05226 5.71745 5.62709 5.46174C5.58136 5.60814 5.50322 5.74698 5.39226 5.867C5.04234 6.24576 4.48218 6.31401 4.05701 6.0583C4.01114 6.20456 3.93314 6.3434 3.82217 6.46356C3.47212 6.84218 2.91196 6.91043 2.48692 6.65472C2.44106 6.80111 2.36305 6.93982 2.25195 7.05998C1.90204 7.4386 1.34187 7.50685 0.91684 7.25114C0.900223 7.30401 0.879349 7.35565 0.854492 7.40591C0.991135 6.84973 1.16335 6.31387 1.2706 6.19769C1.62065 5.81907 2.18068 5.75082 2.60585 6.00653C2.65172 5.86014 2.72972 5.72143 2.84082 5.60127C3.19073 5.22265 3.7509 5.1544 4.17593 5.41011C4.2218 5.26371 4.2998 5.12487 4.4109 5.00485C4.76082 4.6261 5.32098 4.55784 5.74602 4.81355C5.79189 4.66729 5.87003 4.52845 5.98099 4.40829C6.3309 4.02968 6.89107 3.96142 7.31624 4.21713C7.36197 4.07074 7.44011 3.93203 7.55107 3.81187C7.90099 3.43325 8.46115 3.365 8.88632 3.62071C8.93219 3.47432 9.01019 3.33561 9.12115 3.21545C9.47121 2.8367 10.0314 2.76844 10.4564 3.02415C10.5023 2.8779 10.5803 2.73906 10.6914 2.61889C11.0413 2.24028 11.6015 2.17202 12.0265 2.42773C12.0724 2.28134 12.1504 2.14264 12.2615 2.02247C12.6103 1.64496 13.1682 1.57602 13.5929 1.82911C13.7247 1.41136 14.1072 1.10113 14.5702 1.08287C14.7272 1.07669 14.8776 1.10498 15.0144 1.1606C15.0595 1.27211 15.0866 1.39296 15.0917 1.52012C15.1119 2.03538 14.764 2.47978 14.2827 2.59953Z" fill="#FFF5F5"/>
<path d="M13.0174 3.50009C13.0239 3.66351 13.0668 3.81677 13.1378 3.95273C12.6565 4.07248 12.3086 4.51688 12.329 5.032C12.3354 5.19542 12.3784 5.34882 12.4494 5.48463C11.9681 5.60452 11.6202 6.04878 11.6405 6.56404C11.647 6.72746 11.69 6.88072 11.761 7.01668C11.2795 7.13643 10.9318 7.58083 10.9521 8.09595C10.9586 8.25937 11.0014 8.41277 11.0725 8.54858C10.5911 8.66847 10.2434 9.11273 10.2635 9.62799C10.27 9.79141 10.313 9.94467 10.384 10.0806C9.90264 10.2004 9.55479 10.6448 9.57511 11.1599C9.58157 11.3233 9.62455 11.4767 9.69555 11.6127C9.21421 11.7324 8.86636 12.1767 8.88668 12.6919C8.89313 12.8554 8.93612 13.0088 9.00712 13.1446C8.52564 13.2645 8.17792 13.7087 8.19825 14.224C8.2047 14.3874 8.24755 14.5407 8.31869 14.6766C7.83721 14.7964 7.48949 15.2408 7.50982 15.7559C7.51627 15.9193 7.55912 16.0727 7.63026 16.2085C7.14892 16.3284 6.80106 16.7727 6.82139 17.2879C6.82825 17.4618 6.87646 17.624 6.95583 17.7661C6.75121 17.7187 6.5492 17.6645 6.35021 17.6032C6.18583 17.4235 6.08146 17.187 6.07116 16.9244C6.05083 16.4092 6.39869 15.9649 6.88003 15.8452C6.80889 15.7092 6.76604 15.5558 6.75959 15.3924C6.73927 14.8773 7.08712 14.4329 7.56846 14.3131C7.49732 14.1772 7.45448 14.0239 7.44802 13.8605C7.4277 13.3452 7.77555 12.901 8.25689 12.7811C8.18589 12.6452 8.14291 12.4919 8.13645 12.3284C8.11613 11.8132 8.46398 11.3689 8.94532 11.2492C8.87432 11.1132 8.83134 10.9598 8.82488 10.7964C8.80456 10.2813 9.15241 9.83687 9.63389 9.71712C9.56275 9.58116 9.51977 9.4279 9.51345 9.26448C9.49313 8.74922 9.84084 8.30496 10.3223 8.18507C10.2512 8.04926 10.2083 7.89586 10.2019 7.73244C10.1816 7.21718 10.5294 6.77292 11.0107 6.65317C10.9396 6.51721 10.8968 6.36395 10.8903 6.20053C10.87 5.68527 11.2178 5.24088 11.6992 5.12112C11.6282 4.98531 11.5852 4.83191 11.5787 4.66849C11.5584 4.15337 11.9063 3.70897 12.3877 3.58922C12.34 3.49803 12.2721 3.32967 12.2731 3.21143C12.4984 3.31799 12.8092 3.33447 13.0446 3.21513C13.0233 3.30646 13.0136 3.4019 13.0174 3.50009Z" fill="#FDE5BD"/>
<path d="M6.85547 10.3712V11.4259C6.85547 11.62 6.69809 11.7774 6.50391 11.7774C6.30972 11.7774 6.15234 11.62 6.15234 11.4259V10.3712C6.15234 10.177 6.30972 10.0196 6.50391 10.0196C6.69809 10.0196 6.85547 10.177 6.85547 10.3712ZM9.76218 5.70665C9.62485 5.56946 9.40224 5.56946 9.26491 5.70665L8.51921 6.45249C8.38188 6.58982 8.38188 6.81243 8.51921 6.94962C8.6564 7.08695 8.87901 7.08695 9.01634 6.94962L9.76218 6.20392C9.89937 6.06659 9.89937 5.84398 9.76218 5.70665Z" fill="#FDF061"/>
<path d="M3.72126 9.38924C3.58393 9.52657 3.36132 9.52657 3.22399 9.38924C3.0868 9.25191 3.0868 9.02943 3.22399 8.89211L3.96982 8.14627C4.10715 8.00894 4.32962 8.00894 4.46695 8.14627C4.60428 8.2836 4.60428 8.50621 4.46695 8.6434L3.72126 9.38924ZM7.65244 8.21027L6.9066 7.46457C6.76928 7.32724 6.54667 7.32724 6.40947 7.46457C6.27214 7.60176 6.27214 7.82437 6.40947 7.9617L7.15517 8.70753C7.2925 8.84473 7.51511 8.84473 7.65244 8.70753C7.78963 8.57021 7.78963 8.3476 7.65244 8.21027ZM4.11539 12.7166C3.97806 12.5794 3.75559 12.5794 3.61826 12.7166C3.48093 12.8539 3.48093 13.0765 3.61826 13.2139L4.36396 13.9595C4.50129 14.0969 4.7239 14.0969 4.86123 13.9595C4.99842 13.8222 4.99842 13.5997 4.86123 13.4624L4.11539 12.7166Z" fill="#A11259"/>
<path d="M3.16406 11.25H2.10938C1.91519 11.25 1.75781 11.0926 1.75781 10.8984C1.75781 10.7043 1.91519 10.5469 2.10938 10.5469H3.16406C3.35825 10.5469 3.51562 10.7043 3.51562 10.8984C3.51562 11.0926 3.35825 11.25 3.16406 11.25Z" fill="#08E092"/>
</g>
<defs>
<clipPath id="clip0_8672_5935">
<rect width="18" height="18" fill="white"/>
</clipPath>
</defs>
</svg>
