<svg width="18" height="18" viewBox="0 0 18 18" fill="none" xmlns="http://www.w3.org/2000/svg">
<g clip-path="url(#clip0_8672_8556)">
<path d="M18 9C18 13.9706 13.9706 18 8.99999 18C6.92138 18 5.0077 17.295 3.48417 16.1116C2.89929 15.1019 2.12379 14.2166 1.20698 13.5045C0.43959 12.1797 0 10.6412 0 9C0 4.02937 4.02937 0 8.99999 0C13.9706 0 18 4.02937 18 9Z" fill="#E31E7F"/>
<path d="M11.7555 7.59098C11.3343 7.45722 11.0085 7.25631 10.8056 7.02958C9.97733 7.29037 9.26898 7.2905 9.09004 6.99236C8.9111 6.69422 9.31554 6.18775 10.0342 5.74418C9.93626 5.46952 9.93283 5.1218 10.0472 4.74429C10.3131 3.86593 11.1136 3.15978 11.8352 3.16706C12.1069 3.16981 12.3285 3.27335 12.4852 3.44804C12.5091 3.42428 12.5337 3.40038 12.5588 3.37676C13.3588 2.62186 14.4456 2.24036 14.9864 2.52491C15.2097 2.64233 15.3046 2.85519 15.2832 3.11749C15.3444 3.08631 15.4072 3.05596 15.4716 3.02657C16.5574 2.53219 17.6614 2.50417 17.9375 2.96409C18.2134 3.42387 17.5568 4.19744 16.4709 4.69183C16.4065 4.72121 16.342 4.74882 16.2776 4.77477C16.5373 4.90922 16.6836 5.0986 16.6669 5.32533C16.6264 5.8745 15.6464 6.43398 14.4781 6.57529C14.4415 6.57969 14.4051 6.58367 14.369 6.58711C14.4442 6.799 14.4152 7.01667 14.2628 7.2125C13.8577 7.7327 12.7352 7.90217 11.7555 7.59098Z" fill="#08B772"/>
<path d="M17.0045 3.87682C16.2798 3.99204 15.1982 4.42833 13.9512 5.08847C13.8337 4.90871 13.6907 4.74089 13.5234 4.59024C14.8933 3.85718 16.0956 3.36939 16.9032 3.24085C17.0789 3.21297 17.2437 3.33272 17.2718 3.50823C17.2997 3.68387 17.18 3.84894 17.0045 3.87682Z" fill="#06995F"/>
<path d="M12.1217 6.68254C11.6808 6.71275 11.304 6.64546 11.0321 6.50909C10.3573 7.0558 9.69849 7.31604 9.4226 7.10441C9.1467 6.89265 9.3369 6.27316 9.84255 5.59668C9.6507 5.37723 9.51983 5.05505 9.48755 4.66188C9.4123 3.74727 9.89762 2.79654 10.5715 2.53836C10.8251 2.44113 11.0694 2.4561 11.2793 2.56116C11.2929 2.53012 11.3069 2.49895 11.3216 2.46777C11.7885 1.47186 12.6594 0.718061 13.2668 0.783979C13.5176 0.811308 13.6841 0.974455 13.7604 1.22632C13.806 1.17482 13.8532 1.12346 13.9024 1.07251C14.7309 0.214064 15.7474 -0.217424 16.173 0.109007C16.5986 0.435438 16.2719 1.39606 15.4434 2.25464C15.3942 2.30559 15.3444 2.35489 15.2941 2.40268C15.5848 2.43248 15.7905 2.55484 15.8582 2.77182C16.0222 3.29751 15.3162 4.17779 14.2814 4.7381C14.2489 4.75567 14.2165 4.7727 14.1841 4.78932C14.332 4.95865 14.3848 5.17178 14.3149 5.40991C14.1293 6.04245 13.1472 6.61236 12.1217 6.68254Z" fill="#04D481"/>
<path d="M14.3043 2.46145C13.1696 3.13203 11.3437 5.18908 9.65259 7.70193C9.5533 7.84942 9.35321 7.88856 9.20572 7.78927C9.19418 7.78145 9.18319 7.77293 9.17289 7.764C9.05287 7.65881 9.02691 7.47836 9.11838 7.3424C10.8587 4.75622 12.7658 2.62268 13.9768 1.90706C14.1299 1.81669 14.3273 1.8675 14.4178 2.02049C14.5083 2.17361 14.4575 2.37095 14.3043 2.46145Z" fill="#08B772"/>
<path d="M10.5834 6.95164C11.5249 7.84799 11.2684 9.56927 10.039 10.606L3.49708 16.1212C2.57313 15.4063 1.79201 14.5157 1.2041 13.4992L6.19848 6.94931C7.17366 5.6705 8.88024 5.32992 9.82177 6.22627L10.5834 6.95164Z" fill="#FDA800"/>
<path d="M10.5832 6.95168L10.535 6.90568C9.837 6.24101 8.71859 6.25707 7.78942 6.8307C7.75001 6.85487 7.74356 6.90952 7.77693 6.94166L8.35536 7.49771C8.48417 7.62034 8.48911 7.82414 8.36648 7.95295C8.24385 8.08163 8.04005 8.08671 7.91123 7.96407L7.25947 7.33744C7.23159 7.31066 7.1871 7.31094 7.16032 7.33882C7.07325 7.42918 6.99017 7.52586 6.91175 7.62858L4.6726 10.5654C4.65091 10.5938 4.65393 10.6339 4.67975 10.6586L5.40086 11.3531C5.52954 11.4757 5.53462 11.6795 5.41198 11.8083C5.28935 11.9371 5.08555 11.9421 4.95674 11.8195L4.29838 11.1854C4.26803 11.1562 4.21914 11.1599 4.1936 11.1934L2.70509 13.1456C2.68339 13.1741 2.68655 13.2144 2.71251 13.2392L2.98469 13.4983C3.10898 13.6165 3.1282 13.8136 3.0182 13.9452C2.89763 14.0894 2.68257 14.0998 2.54867 13.9722L2.33087 13.7649C2.30052 13.736 2.25191 13.7399 2.2265 13.7732L1.77441 14.3662C2.26578 15.0269 2.84599 15.6176 3.49679 16.1213L10.0387 10.6059C11.2682 9.56931 11.5248 7.84803 10.5832 6.95168ZM3.6528 15.2295C3.53017 15.3583 3.32637 15.3634 3.19755 15.2407L2.91246 14.9691C2.78364 14.8465 2.7787 14.6427 2.90134 14.514C3.02397 14.3852 3.22777 14.3802 3.35644 14.5027L3.64168 14.7744C3.77049 14.897 3.77543 15.1008 3.6528 15.2295ZM5.24142 13.8687C5.11879 13.9975 4.91499 14.0024 4.78618 13.8798L4.31308 13.4294C4.18426 13.3067 4.17932 13.1029 4.30195 12.9741C4.42459 12.8454 4.62839 12.8404 4.75706 12.963L5.23016 13.4134C5.35898 13.5361 5.36392 13.7399 5.24142 13.8687ZM7.46148 11.537C7.33898 11.6658 7.13505 11.6707 7.00637 11.5481L6.53328 11.0977C6.40446 10.975 6.39952 10.7712 6.52215 10.6424C6.64479 10.5136 6.84858 10.5086 6.97726 10.6313L7.45036 11.0817C7.57917 11.2044 7.58412 11.4082 7.46148 11.537ZM8.60571 9.95892C8.48307 10.0877 8.27941 10.0928 8.1506 9.97018L7.4895 9.3408C7.36082 9.21816 7.35574 9.01437 7.47837 8.88555C7.60101 8.75688 7.8048 8.75179 7.93362 8.87443L8.59458 9.50381C8.7234 9.62644 8.72834 9.83024 8.60571 9.95892ZM10.0574 9.563C9.93491 9.69167 9.73112 9.69676 9.6023 9.57412L9.12921 9.12368C9.00039 9.00105 8.99545 8.79725 9.11808 8.66844C9.24072 8.53962 9.44451 8.53468 9.57319 8.65731L10.0463 9.10775C10.1751 9.23039 10.18 9.43418 10.0574 9.563Z" fill="#FDBF43"/>
</g>
<defs>
<clipPath id="clip0_8672_8556">
<rect width="18" height="18" fill="white"/>
</clipPath>
</defs>
</svg>
