<svg width="14" height="14" viewBox="0 0 14 14" fill="none" xmlns="http://www.w3.org/2000/svg">
<path d="M7.00004 0.333496C3.32671 0.333496 0.333374 3.32683 0.333374 7.00016C0.333374 10.6735 3.32671 13.6668 7.00004 13.6668C10.6734 13.6668 13.6667 10.6735 13.6667 7.00016C13.6667 3.32683 10.6734 0.333496 7.00004 0.333496ZM10.1867 5.46683L6.40671 9.24683C6.31337 9.34016 6.18671 9.3935 6.05337 9.3935C5.92004 9.3935 5.79337 9.34016 5.70004 9.24683L3.81337 7.36016C3.62004 7.16683 3.62004 6.84683 3.81337 6.6535C4.00671 6.46016 4.32671 6.46016 4.52004 6.6535L6.05337 8.18683L9.48004 4.76016C9.67337 4.56683 9.99337 4.56683 10.1867 4.76016C10.38 4.9535 10.38 5.26683 10.1867 5.46683Z" />
</svg>
