<svg width="18" height="18" viewBox="0 0 18 18" fill="none" xmlns="http://www.w3.org/2000/svg">
<g clip-path="url(#clip0_8672_5564)">
<path d="M17.9996 9C17.9996 12.7189 15.744 15.9105 12.5264 17.2825C10.6081 12.0471 5.82991 8.2039 0.0976562 7.6701C0.740494 3.33023 4.48093 0 8.9996 0C13.9702 0 17.9996 4.02937 17.9996 9Z" fill="#925B44"/>
<path d="M16.2598 1.75781V6.44183C16.2598 6.59935 16.2334 6.75563 16.1817 6.90436L14.8217 10.81C14.8011 10.8695 14.7499 10.912 14.6882 10.9249C14.1301 11.0415 13.7108 11.5362 13.7108 12.1289C13.7108 12.4281 13.8178 12.7024 13.9954 12.9157C14.0356 12.9639 14.0491 13.029 14.0285 13.0883L12.5757 17.261C11.4795 17.7361 10.2706 18 8.99991 18C5.20509 18 1.95918 15.6513 0.635742 12.3284L9.27896 8.28781L13.3593 6.38045V1.75781H16.2598Z" fill="#FDF7BD"/>
<path d="M16.1568 2.2084L12.6166 9.78128C12.581 9.85749 12.4967 9.89663 12.4148 9.87713C12.3245 9.85571 12.2303 9.84417 12.1334 9.84376C11.4675 9.84143 10.913 10.3814 10.8987 11.0472C10.8898 11.4622 11.0866 11.8315 11.3939 12.0608C11.4613 12.1111 11.4854 12.2009 11.4498 12.2771L8.77574 17.9971C3.90894 17.8782 0 13.8957 0 9.00001C0 8.54367 0.0343323 8.09529 0.0998383 7.65707L4.92696 5.40048C4.98642 5.37274 5.05673 5.37645 5.11098 5.41325C5.30763 5.54687 5.54507 5.62501 5.80078 5.62501C6.43607 5.62501 6.9586 5.1434 7.02397 4.52542C7.03111 4.45785 7.07121 4.39811 7.13287 4.36927L14.7546 0.80627C15.6477 0.388789 16.5742 1.31549 16.1568 2.2084Z" fill="#FDF385"/>
<path d="M16.2462 1.59575C16.0518 1.56431 15.8419 1.58779 15.6335 1.68516L9.9407 4.34646C9.89594 4.36747 9.88618 4.42666 9.92203 4.46085C10.1146 4.64405 10.2242 4.91363 10.1886 5.20751C10.1401 5.60714 9.81642 5.92684 9.41638 5.97106C8.88629 6.02956 8.4375 5.61606 8.4375 5.09765C8.4375 5.08117 8.43805 5.06482 8.43887 5.04848L8.01178 5.24816L2.05623 8.03223C2.05582 8.03251 2.0554 8.03264 2.05499 8.03292C2.01503 8.0516 2.02245 8.11051 2.06543 8.12012C2.72186 8.26665 3.20526 8.87172 3.16132 9.58172C3.11737 10.2907 2.53729 10.8623 1.82771 10.8966C1.60057 10.9078 1.38455 10.8648 1.19133 10.7795C1.06581 10.7242 0.927521 10.8244 0.943863 10.9608C1.164 12.7967 1.93661 14.4628 3.091 15.7878C1.19724 14.1379 0 11.7089 0 8.99999C0 8.54365 0.0343323 8.09527 0.0998383 7.65705L4.92696 5.40046C4.98642 5.37272 5.05673 5.37642 5.11098 5.41323C5.30763 5.54685 5.54507 5.62499 5.80078 5.62499C6.43607 5.62499 6.9586 5.14338 7.02397 4.5254C7.03111 4.45783 7.07121 4.39809 7.13287 4.36925L14.7546 0.806249C15.4394 0.486135 16.143 0.956488 16.2462 1.59575ZM6.67969 11.9531C5.90309 11.9531 5.27344 12.5828 5.27344 13.3594C5.27344 14.136 5.90309 14.7656 6.67969 14.7656C7.45628 14.7656 8.08594 14.136 8.08594 13.3594C8.08594 12.5828 7.45628 11.9531 6.67969 11.9531ZM7.03125 8.96483C7.03125 8.47938 6.6378 8.08593 6.15234 8.08593C5.66689 8.08593 5.27344 8.47938 5.27344 8.96483C5.27344 9.45029 5.66689 9.84374 6.15234 9.84374C6.6378 9.84374 7.03125 9.45029 7.03125 8.96483ZM12.4805 4.21874C11.801 4.21874 11.25 4.7697 11.25 5.44921C11.25 6.12871 11.801 6.67968 12.4805 6.67968C13.16 6.67968 13.7109 6.12871 13.7109 5.44921C13.7109 4.7697 13.16 4.21874 12.4805 4.21874Z" fill="#FDE803"/>
</g>
<defs>
<clipPath id="clip0_8672_5564">
<rect width="18" height="18" fill="white"/>
</clipPath>
</defs>
</svg>
