<svg width="24" height="24" viewBox="0 0 24 24" xmlns="http://www.w3.org/2000/svg">
<path fill-rule="evenodd" clip-rule="evenodd" d="M12.2466 22C10.8916 22 9.5706 21.985 8.2636 21.958C6.5916 21.925 5.4346 20.841 5.2456 19.129C4.9306 16.289 4.3916 9.595 4.3866 9.528C4.3526 9.115 4.6606 8.753 5.0736 8.72C5.4806 8.709 5.8486 8.995 5.8816 9.407C5.8866 9.475 6.4246 16.146 6.7366 18.964C6.8436 19.937 7.3686 20.439 8.2946 20.458C10.7946 20.511 13.3456 20.514 16.0956 20.464C17.0796 20.445 17.6116 19.953 17.7216 18.957C18.0316 16.163 18.5716 9.475 18.5776 9.407C18.6106 8.995 18.9756 8.707 19.3846 8.72C19.7976 8.754 20.1056 9.115 20.0726 9.528C20.0666 9.596 19.5246 16.307 19.2126 19.122C19.0186 20.869 17.8646 21.932 16.1226 21.964C14.7896 21.987 13.5036 22 12.2466 22Z" />
<path fill-rule="evenodd" clip-rule="evenodd" d="M20.708 6.98932H3.75C3.336 6.98932 3 6.65332 3 6.23932C3 5.82532 3.336 5.48932 3.75 5.48932H20.708C21.122 5.48932 21.458 5.82532 21.458 6.23932C21.458 6.65332 21.122 6.98932 20.708 6.98932Z" />
<path fill-rule="evenodd" clip-rule="evenodd" d="M17.4403 6.98931C16.3023 6.98931 15.3143 6.17831 15.0903 5.06231L14.8473 3.84631C14.7963 3.66131 14.5853 3.50031 14.3453 3.50031H10.1123C9.87233 3.50031 9.66133 3.66131 9.60033 3.89231L9.36733 5.06231C9.14433 6.17831 8.15533 6.98931 7.01733 6.98931C6.60333 6.98931 6.26733 6.65331 6.26733 6.23931C6.26733 5.8253 6.60333 5.48931 7.01733 5.48931C7.44333 5.48931 7.81333 5.18531 7.89733 4.76731L8.14033 3.55131C8.38733 2.61931 9.19433 2.00031 10.1123 2.00031H14.3453C15.2633 2.00031 16.0703 2.61931 16.3073 3.50631L16.5613 4.76731C16.6443 5.18531 17.0143 5.48931 17.4403 5.48931C17.8543 5.48931 18.1903 5.8253 18.1903 6.23931C18.1903 6.65331 17.8543 6.98931 17.4403 6.98931Z"/>
</svg>
