<svg width="22" height="22" viewBox="0 0 22 22"  xmlns="http://www.w3.org/2000/svg">
<path d="M10.0859 1.8335H8.2526C3.66927 1.8335 1.83594 3.66683 1.83594 8.25016V13.7502C1.83594 18.3335 3.66927 20.1668 8.2526 20.1668H13.7526C18.3359 20.1668 20.1693 18.3335 20.1693 13.7502V11.9168" stroke="#B6349A" stroke-width="1.5" stroke-linecap="round" stroke-linejoin="round"/>
<path d="M14.7027 2.76832L7.4794 9.99165C7.2044 10.2667 6.9294 10.8075 6.8744 11.2017L6.48023 13.9608C6.33357 14.96 7.0394 15.6567 8.03857 15.5192L10.7977 15.125C11.1827 15.07 11.7236 14.795 12.0077 14.52L19.2311 7.29665C20.4777 6.04999 21.0644 4.60165 19.2311 2.76832C17.3977 0.934987 15.9494 1.52165 14.7027 2.76832Z"  stroke-width="1.5" stroke-miterlimit="10" stroke-linecap="round" stroke-linejoin="round"/>
<path d="M13.6641 3.8042C14.2782 5.99503 15.9924 7.7092 18.1924 8.33253L13.6641 3.8042Z" />
<path d="M13.6641 3.8042C14.2782 5.99503 15.9924 7.7092 18.1924 8.33253"  stroke-width="1.5" stroke-miterlimit="10" stroke-linecap="round" stroke-linejoin="round"/>
</svg>
