<svg width="20" height="20" viewBox="0 0 20 20" xmlns="http://www.w3.org/2000/svg">
<path d="M20 10.2252C20 9.56683 19.9404 8.94183 19.8382 8.3335H10.2171V12.0918H15.7258C15.4789 13.3252 14.7552 14.3668 13.6824 15.0752V17.5752H16.9689C18.8931 15.8335 20 13.2668 20 10.2252Z" />
<path d="M10.2171 19.9999C12.9757 19.9999 15.2831 19.0999 16.9689 17.5749L13.6824 15.0749C12.7629 15.6749 11.5964 16.0415 10.2171 16.0415C7.55214 16.0415 5.29586 14.2832 4.487 11.9082H1.09833V14.4832C2.77564 17.7499 6.22391 19.9999 10.2171 19.9999Z" />
<path d="M4.48702 11.9083C4.27416 11.3083 4.16347 10.6666 4.16347 9.99993C4.16347 9.33327 4.28267 8.6916 4.48702 8.0916V5.5166H1.09834C0.40017 6.8666 0 8.38327 0 9.99993C0 11.6166 0.40017 13.1333 1.09834 14.4833L4.48702 11.9083Z"/>
<path d="M10.2171 3.95833C11.7241 3.95833 13.0694 4.46667 14.1337 5.45833L17.0455 2.60833C15.2831 0.991667 12.9757 0 10.2171 0C6.22391 0 2.77564 2.25 1.09833 5.51667L4.487 8.09167C5.29586 5.71667 7.55214 3.95833 10.2171 3.95833Z"/>
</svg>
