<svg width="136" height="33" viewBox="0 0 136 33"  xmlns="http://www.w3.org/2000/svg">
<path fill-rule="evenodd" clip-rule="evenodd" d="M15.6089 31.7005C22.3207 31.7005 26.0504 31.7005 28.4867 29.2569C30.9245 26.8132 30.9245 23.071 30.9245 16.3405C30.9245 9.60996 30.9245 5.86914 28.4867 3.4255C26.0504 0.980469 22.3207 0.980469 15.6089 0.980469C8.8984 0.980469 5.16868 0.980469 2.73093 3.4255C0.295959 5.86774 0.295959 9.61141 0.295959 16.3405C0.295959 23.071 0.295959 26.8132 2.73093 29.2569C5.16868 31.6991 8.8984 31.7005 15.6089 31.7005ZM7.82919 14.3492L17.0735 14.3674L17.5969 12.0857L25.4768 12.0592L24.551 14.3311L17.0804 14.3674L16.5639 16.649L22.0826 16.6588L21.271 18.9405L16.039 18.9307L15.5253 21.2096H19.688L18.8054 23.5011H17.2071C16.0544 23.5011 15.2149 22.3602 15.5128 21.2096L7.8278 21.1929V18.9112L16.039 18.928L16.5528 16.649L7.8278 16.6323L7.82919 14.3492ZM7.82919 9.77754L16.2506 9.79573C17.2029 9.79573 17.9018 10.7187 17.6832 11.6794L17.5955 12.0774L7.8278 12.0606L7.82919 9.77754ZM35.951 20.9797H46.6134V17.9512H39.3199V16.4459H46.3446V13.4354H39.3199V12.0018H46.6134V8.97328H35.951V20.9797ZM47.3022 18.6859C47.3022 20.227 48.449 21.1589 50.4919 21.1589C52.4452 21.1589 53.5562 20.3525 53.8967 19.0802H54.0759V20.9797H57.2298V15.8366C57.2298 13.3099 55.7066 11.7688 52.5527 11.7688C49.4884 11.7688 47.4814 13.3099 47.4814 15.7112V15.747H50.8503V15.6754C50.8503 14.9227 51.1908 14.7077 52.3018 14.7077C53.5025 14.7077 53.8967 14.851 53.8967 15.765V15.9442L50.2231 16.3026C48.1802 16.4997 47.3022 17.4136 47.3022 18.6859ZM51.4954 18.8114C50.9758 18.8114 50.689 18.7576 50.689 18.4709C50.689 18.2738 50.8145 18.1662 51.1191 18.1304L53.8788 17.8078C53.7892 18.6142 53.1262 18.8114 51.4954 18.8114ZM63.0848 21.1589C59.895 21.1589 58.1926 19.9224 58.1926 17.8437V17.772H61.5616V17.9512C61.5616 18.453 61.8841 18.5067 63.1027 18.5067C64.2675 18.5067 64.4467 18.3813 64.4467 18.0766C64.4467 17.7899 64.3033 17.7182 63.4611 17.6286L60.8448 17.3419C58.9811 17.1448 57.9776 16.2667 57.9776 14.7435C57.9776 13.1486 59.2499 11.7688 62.6368 11.7688C65.7728 11.7688 67.4393 12.8978 67.4393 15.1198V15.1915H64.0704V15.084C64.0704 14.6181 63.8912 14.403 62.5293 14.403C61.4361 14.403 61.2928 14.5464 61.2928 14.8869C61.2928 15.1378 61.4361 15.2632 62.4934 15.3707L64.2854 15.5678C66.9197 15.8546 67.7619 16.7326 67.7619 18.2558C67.7619 19.9403 66.0774 21.1589 63.0848 21.1589ZM68.9294 24.0261H70.5601C73.1943 24.0261 74.5742 23.4706 75.5418 21.3381L79.8247 11.948H76.0615L74.7175 15.4603L74.1262 17.5749H73.8932L73.2481 15.4962L71.689 11.948H67.8542L72.1729 20.8722C72.0295 20.9438 71.8145 20.9797 71.5457 20.9797H68.9294V24.0261ZM83.5599 20.9797H80.191V8.97328H84.7606L86.9647 13.955L88.1474 17.0552H88.3804L89.5094 13.955L91.606 8.97328H96.1756V20.9797H92.8066V16.0158L92.9321 14.0088H92.6991L92.0182 16.0158L90.2262 20.2629H86.1404L84.3484 16.0158L83.6674 14.0088H83.4345L83.5599 16.0158V20.9797ZM96.9847 18.6859C96.9847 20.227 98.1315 21.1589 100.174 21.1589C102.128 21.1589 103.239 20.3525 103.579 19.0802H103.758V20.9797H106.912V15.8366C106.912 13.3099 105.389 11.7688 102.235 11.7688C99.1709 11.7688 97.1639 13.3099 97.1639 15.7112V15.747H100.533V15.6754C100.533 14.9227 100.873 14.7077 101.984 14.7077C103.185 14.7077 103.579 14.851 103.579 15.765V15.9442L99.9056 16.3026C97.8627 16.4997 96.9847 17.4136 96.9847 18.6859ZM101.178 18.8114C100.658 18.8114 100.372 18.7576 100.372 18.4709C100.372 18.2738 100.497 18.1662 100.802 18.1304L103.561 17.8078C103.472 18.6142 102.809 18.8114 101.178 18.8114ZM111.28 20.9797H107.911V11.948H111.065V14.3134H111.244C111.495 12.8261 112.427 11.7688 114.219 11.7688C116.208 11.7688 116.996 13.077 116.996 14.8869V16.6789H113.627V15.6216C113.627 14.869 113.341 14.6002 112.463 14.6002C111.549 14.6002 111.28 14.869 111.28 15.5858V20.9797ZM122.101 20.9797H124.467V17.9512H122.854C122.083 17.9512 121.868 17.772 121.868 17.0552V14.7077H124.467V11.948H121.868V10.389H118.499V11.948H117.173V14.7077H118.499V17.539C118.499 19.8866 119.843 20.9797 122.101 20.9797Z" />
</svg>
