<svg width="290" height="258" viewBox="0 0 290 258" fill="none" xmlns="http://www.w3.org/2000/svg">
<path d="M154.51 0L163.118 2.56428L158.905 39.1968L154.326 37.5484L154.51 0Z" fill="#B0B0B0"/>
<path d="M153.96 41.7607L158.173 43.4092L157.623 46.8893L153.411 45.424L153.96 41.7607Z" fill="#B0B0B0"/>
<path d="M169.895 19.5986L178.504 21.9797L174.474 45.4246L169.712 43.7761L169.895 19.5986Z" fill="#B0B0B0"/>
<path d="M169.346 47.8052L173.559 49.4536L173.009 52.7506L168.796 51.2853L169.346 47.8052Z" fill="#B0B0B0"/>
<path d="M214.22 181.697H101.576C101.576 181.697 107.803 179.682 96.9966 181.697C86.0069 183.712 86.0069 183.346 86.9227 176.386C87.8385 169.425 94.4323 162.282 99.5609 154.589C99.0114 147.263 101.393 139.57 110.001 132.426C110.001 132.243 110.001 132.06 110.001 131.877C105.788 89.9327 127.951 103.67 146.45 96.7097L144.069 95.0613L171.177 83.3389C171.177 83.3389 178.87 85.3537 186.013 89.3832C191.325 92.497 196.271 96.5266 197.003 101.655C197.919 107.516 197.003 115.209 195.721 122.353C194.622 128.763 193.34 134.624 192.974 138.471C192.974 139.203 192.79 139.753 192.79 140.302C194.073 146.347 202.498 155.322 201.399 161.183C204.33 164.297 207.993 173.638 208.542 177.668C209.275 181.697 214.22 181.697 214.22 181.697Z" fill="#5B5B5B"/>
<path d="M41.8647 181.88H280.159" stroke="#353535" stroke-width="2.9953" stroke-miterlimit="10" stroke-linecap="round" stroke-linejoin="round"/>
<path d="M13.8411 181.88H29.0435" stroke="#353535" stroke-width="2.9953" stroke-miterlimit="10" stroke-linecap="round" stroke-linejoin="round"/>
<path d="M179.419 136.09C177.954 137.006 176.122 137.738 174.474 138.288C172.276 139.02 169.712 139.753 167.331 140.119C160.004 141.585 152.494 141.951 144.985 140.302C138.757 139.02 132.53 137.005 126.852 133.709C124.837 132.61 123.005 131.327 121.357 129.862C112.016 121.986 107.07 116.125 109.268 104.036C111.466 91.9475 114.214 82.9725 114.214 82.9725C114.397 82.0567 115.862 80.7745 116.412 80.0419C117.327 79.1261 117.877 78.0271 118.793 77.1113C120.258 75.2797 121.906 73.2649 123.555 71.4333C127.218 67.77 131.248 64.8394 136.01 63.0078C143.703 60.2603 151.945 60.6267 159.821 61.7256C165.682 62.4583 171.543 63.7404 176.672 66.671C181.251 69.2353 184.731 72.7154 187.662 76.9281C190.775 81.5072 192.973 86.6358 195.538 91.7643C195.538 91.7643 196.453 101.289 196.087 113.561C196.087 125.833 190.043 130.228 179.419 136.09Z" fill="#595959"/>
<path d="M139.857 104.952C138.025 106.234 135.278 111.179 127.585 107.15C116.778 101.289 119.526 86.6357 126.303 82.6061C138.391 75.4628 149.381 80.5913 149.931 91.7642C150.48 103.67 143.703 102.571 139.857 104.952Z" fill="#D9D9D9"/>
<path d="M200.85 174.92C199.384 176.752 199.751 179.499 201.766 180.965C202.865 181.697 203.964 182.43 204.513 184.262C205.795 187.925 217.518 196.533 223.562 194.702C229.789 192.87 236.566 188.291 234.918 180.781C233.453 173.272 226.859 169.609 223.562 169.425C220.265 169.059 208.726 167.777 204.879 170.707C203.414 171.99 201.949 173.638 200.85 174.92Z" fill="#353535"/>
<path d="M104.506 174.92C105.972 176.752 105.605 179.499 103.591 180.964C102.492 181.697 101.393 182.43 100.843 184.261C99.561 187.924 87.8387 196.533 81.7943 194.702C75.7499 192.87 68.7898 188.291 70.4382 180.781C71.9035 173.271 78.4974 169.608 81.7943 169.425C85.0912 169.242 96.6304 167.777 100.477 170.707C102.125 171.989 103.591 173.638 104.506 174.92Z" fill="#353535"/>
<path d="M133.629 102.571C138.392 103.121 142.604 99.6407 143.154 94.8784C143.703 90.1162 140.223 85.9035 135.461 85.354C130.699 84.8045 126.486 88.2846 125.936 93.0468C125.387 97.809 128.867 102.022 133.629 102.571Z" fill="white"/>
<path d="M142.055 95.7941C141.688 99.4574 138.391 102.205 134.728 101.838C131.065 101.472 128.317 98.1752 128.684 94.512C129.233 95.0615 129.966 95.6109 130.698 95.7941C132.347 95.9773 133.812 94.8783 133.995 93.0467C134.179 91.3982 133.08 89.9329 131.431 89.7497C132.713 88.8339 134.362 88.4676 136.01 88.6508C139.857 88.8339 142.421 91.9477 142.055 95.7941Z" fill="#3A3A3A"/>
<path d="M175.39 106.967C180.152 107.516 184.365 104.036 184.914 99.2739C185.464 94.5117 181.984 90.299 177.222 89.7495C172.459 89.2 168.247 92.6801 167.697 97.4423C167.148 102.388 170.628 106.6 175.39 106.967Z" fill="white"/>
<path d="M168.43 98.541C168.064 102.204 170.811 105.501 174.474 105.868C178.138 106.234 181.435 103.486 181.801 99.8232C181.251 100.373 180.336 100.739 179.603 100.556C177.954 100.373 176.672 98.9074 176.855 97.2589C177.039 95.6104 178.504 94.5115 180.152 94.5115C179.053 93.4125 177.588 92.6798 175.94 92.4967C172.276 92.1303 168.979 94.6946 168.43 98.541Z" fill="#3A3A3A"/>
<path d="M138.941 73.4483C135.827 73.9978 133.08 74.5473 130.882 76.0126C128.684 77.4779 126.486 79.859 125.387 82.6064C125.387 82.7896 125.204 82.7896 125.021 82.7896C124.837 82.7896 124.837 82.6064 124.837 82.6064C125.021 81.1411 125.753 79.4927 126.669 78.2105C127.402 76.7452 128.684 75.6462 130.149 74.7304C131.614 73.8146 132.897 73.082 134.545 72.5325C136.193 72.3493 137.842 72.1662 139.307 72.8988C139.124 72.8988 139.49 73.2651 138.941 73.4483C139.124 73.4483 139.124 73.4483 138.941 73.4483Z" fill="#B2B2B2"/>
<path d="M176.489 80.042C179.236 81.141 181.618 82.24 183.632 84.0716C185.464 85.9032 186.929 88.6507 187.479 91.3981C187.479 91.5813 187.662 91.5813 187.845 91.5813C188.028 91.5813 188.028 91.3981 188.028 91.3981C188.211 89.9328 187.662 88.2843 187.296 87.0022C186.746 85.5369 186.013 84.0716 184.731 82.9726C183.632 81.8736 182.533 80.7747 181.068 80.042C179.603 79.4925 177.954 79.1262 176.489 79.3094C176.306 79.4925 176.306 79.6757 176.489 80.042C176.489 80.042 176.123 80.042 176.489 80.042Z" fill="#B2B2B2"/>
<path d="M192.791 71.9826C189.494 67.5867 184.731 68.8688 186.563 73.9974C189.494 82.0566 194.988 85.903 196.454 115.942C196.82 121.253 214.587 109.897 214.587 91.0315C214.587 87.5514 210.374 86.2693 210.374 86.2693C207.81 85.5366 198.102 78.7596 192.791 71.9826Z" fill="#B2B2B2"/>
<path d="M41.8644 86.2699C41.8644 86.2699 22.4492 80.5919 25.563 87.0026C28.6768 93.4133 37.2854 106.235 51.0226 109.348C64.7597 112.279 56.5174 100.19 56.7006 100.373L41.8644 86.2699Z" fill="#595959"/>
<g filter="url(#filter0_d_401_30215)">
<path d="M21.3506 73.8149C26.2959 79.3098 46.9933 87.369 63.8442 86.6363C66.2253 104.22 68.0569 109.532 71.1707 111.73C62.7452 113.928 40.0331 112.096 36.9194 95.0618C20.9842 95.7945 21.3506 73.8149 21.3506 73.8149Z" fill="#B0B0B0"/>
</g>
<g filter="url(#filter1_d_401_30215)">
<path d="M240.23 138.837C245.725 135.174 255.615 118.14 257.081 103.487C272.649 103.487 277.412 102.754 279.976 100.19C280.709 107.883 279.243 126.749 266.056 137.921C251.403 139.387 240.23 138.837 240.23 138.837Z" fill="#B0B0B0"/>
</g>
<g filter="url(#filter2_d_401_30215)">
<path d="M199.018 198.731C173.559 202.944 168.979 203.677 159.272 202.394C149.564 201.112 136.01 199.464 131.431 208.256C129.416 196.716 124.837 186.093 116.412 178.034C116.961 177.301 117.328 176.202 117.328 175.103C117.328 172.905 116.046 171.074 114.031 170.341C114.397 169.608 114.58 168.876 114.58 168.143C114.58 165.396 112.382 163.014 109.452 163.014C107.803 163.014 106.338 163.747 105.422 165.029C105.605 164.113 105.788 163.381 105.788 163.014C105.788 160.267 103.591 157.886 100.66 157.886C99.1946 157.886 97.7293 158.619 96.8135 159.717C96.0809 158.619 94.9819 157.886 93.5166 157.886C91.3186 157.886 89.6702 159.534 89.6702 161.732C89.6702 162.099 89.6702 163.014 89.6702 164.113C76.6657 159.901 73.9182 159.717 73.9182 159.717C81.7942 144.149 119.159 121.436 146.084 125.649C163.301 128.213 182.717 132.976 192.607 151.841C192.058 151.658 191.508 151.475 190.959 151.475C190.776 151.475 190.409 151.475 190.043 151.658C189.127 150.376 187.662 149.644 186.014 149.644C183.449 149.644 181.434 151.475 181.068 153.856C180.885 153.856 180.152 153.856 179.603 153.856C176.855 153.856 174.657 156.054 174.657 158.802C174.657 160.816 175.94 162.648 177.771 163.381C176.855 164.297 176.306 165.396 176.306 166.861C176.306 169.608 178.504 171.806 181.251 171.806C183.083 171.806 184.548 170.89 185.464 169.608C186.38 170.89 187.845 171.806 189.677 171.806C192.424 171.806 194.622 169.608 194.622 166.861C194.622 166.678 194.622 166.678 194.622 166.495C195.904 165.945 197.003 164.846 197.37 163.564C199.751 172.722 200.667 184.261 199.018 198.731Z"/>
</g>
<path fill-rule="evenodd" clip-rule="evenodd" d="M158.912 181.476C148.278 183.187 138.948 185.42 135.445 186.498L134.744 184.222C138.384 183.102 147.829 180.847 158.533 179.124C169.219 177.404 181.307 176.189 190.18 177.217L189.906 179.583C181.379 178.596 169.564 179.761 158.912 181.476Z" fill="#ECECEC"/>
<path fill-rule="evenodd" clip-rule="evenodd" d="M136.258 174.401C132.56 175.321 129.79 176.148 128.428 176.744L127.474 174.561C129.043 173.875 131.997 173.007 135.682 172.09C139.398 171.165 143.941 170.171 148.742 169.24C158.327 167.383 169.023 165.766 176.26 165.487L176.352 167.868C169.302 168.139 158.751 169.727 149.195 171.579C144.426 172.503 139.925 173.489 136.258 174.401Z" fill="#ECECEC"/>
<path fill-rule="evenodd" clip-rule="evenodd" d="M152.776 155.944C143.416 157.637 133.197 159.489 121.755 165.885L120.593 163.806C132.389 157.212 142.94 155.303 152.294 153.61L152.352 153.6C161.755 151.899 169.799 150.42 177.046 144.853L178.497 146.741C170.752 152.692 162.164 154.245 152.878 155.925L152.776 155.944Z" fill="#ECECEC"/>
<path fill-rule="evenodd" clip-rule="evenodd" d="M143.432 146.984C132.299 147.882 124.07 150.917 114.337 157.586L112.991 155.621C123.039 148.736 131.662 145.544 143.24 144.61L143.432 146.984Z" fill="#ECECEC"/>
<path d="M175.024 129.862C175.024 130.045 175.024 130.412 175.024 130.595V130.778C175.024 130.961 175.024 131.144 174.841 131.327C173.742 134.258 168.979 137.738 164.034 138.288C159.089 138.837 153.96 136.822 151.762 128.58C146.45 133.708 141.322 134.441 137.109 133.342C131.614 131.877 127.951 127.481 127.768 126.199C127.768 125.649 127.768 125.1 127.951 124.55C129.233 112.645 140.772 104.219 153.777 105.685C166.781 107.333 176.306 118.14 175.024 129.862Z" fill="#D9D9D9"/>
<path d="M153.777 107.516C152.678 107.333 151.396 107.333 150.297 107.516C148.832 107.883 146.634 108.249 146.267 110.081C146.084 112.462 151.213 115.209 152.678 115.392C154.143 115.575 159.821 114.11 160.188 111.729C160.371 109.348 158.356 108.432 156.525 107.883C155.609 107.699 154.51 107.333 153.777 107.516Z" fill="#B2B2B2"/>
<path fill-rule="evenodd" clip-rule="evenodd" d="M152.262 119.782C152.175 117.34 151.88 114.787 151.633 113.186L153.114 112.958C153.367 114.603 153.67 117.216 153.758 119.729C153.803 120.985 153.794 122.231 153.695 123.326C153.598 124.401 153.407 125.409 153.043 126.137L151.704 125.467C151.938 124.998 152.11 124.221 152.203 123.191C152.295 122.181 152.305 121.003 152.262 119.782Z" fill="#B2B2B2"/>
<path d="M123.189 71.0672L123.006 73.082C122.09 73.9978 121.357 75.0968 120.441 76.1957C115.679 82.6064 111.283 91.0319 110.001 101.655C109.635 100.373 105.788 86.636 105.056 84.0717C104.873 83.5222 104.689 83.1559 104.689 83.1559V79.3095L108.17 71.6167L117.144 67.0376L123.189 71.0672Z" fill="#878787"/>
<path d="M131.248 65.3891C128.684 67.2207 125.753 69.785 123.006 73.0819C122.09 73.9977 121.357 75.0967 120.442 76.1957C120.075 71.0671 114.031 70.3345 114.031 70.3345C113.298 74.9136 109.269 80.0421 104.873 84.0717C101.21 87.3686 97.1799 89.7497 94.6157 89.9329C93.883 89.9329 93.3335 89.3834 93.6999 88.6508C95.5315 83.8885 94.982 76.9283 95.5315 73.4482C96.2641 69.6018 107.254 63.7406 112.932 61.5427C117.328 59.8942 128.867 62.2753 131.248 65.3891Z" fill="#B2B2B2"/>
<defs>
<filter id="filter0_d_401_30215" x="0.382784" y="58.8385" width="79.7738" height="68.6156" filterUnits="userSpaceOnUse" color-interpolation-filters="sRGB">
<feFlood flood-opacity="0" result="BackgroundImageFix"/>
<feColorMatrix in="SourceAlpha" type="matrix" values="0 0 0 0 0 0 0 0 0 0 0 0 0 0 0 0 0 0 127 0" result="hardAlpha"/>
<feOffset dx="-5.99059"/>
<feGaussianBlur stdDeviation="7.48824"/>
<feColorMatrix type="matrix" values="0 0 0 0 0.397708 0 0 0 0 0.47749 0 0 0 0 0.575 0 0 0 0.15 0"/>
<feBlend mode="normal" in2="BackgroundImageFix" result="effect1_dropShadow_401_30215"/>
<feBlend mode="normal" in="SourceGraphic" in2="effect1_dropShadow_401_30215" result="shape"/>
</filter>
<filter id="filter1_d_401_30215" x="219.263" y="85.2135" width="69.8526" height="68.701" filterUnits="userSpaceOnUse" color-interpolation-filters="sRGB">
<feFlood flood-opacity="0" result="BackgroundImageFix"/>
<feColorMatrix in="SourceAlpha" type="matrix" values="0 0 0 0 0 0 0 0 0 0 0 0 0 0 0 0 0 0 127 0" result="hardAlpha"/>
<feOffset dx="-5.99059"/>
<feGaussianBlur stdDeviation="7.48824"/>
<feColorMatrix type="matrix" values="0 0 0 0 0.397708 0 0 0 0 0.47749 0 0 0 0 0.575 0 0 0 0.15 0"/>
<feBlend mode="normal" in2="BackgroundImageFix" result="effect1_dropShadow_401_30215"/>
<feBlend mode="normal" in="SourceGraphic" in2="effect1_dropShadow_401_30215" result="shape"/>
</filter>
<filter id="filter2_d_401_30215" x="40.97" y="108.663" width="191.832" height="149.015" filterUnits="userSpaceOnUse" color-interpolation-filters="sRGB">
<feFlood flood-opacity="0" result="BackgroundImageFix"/>
<feColorMatrix in="SourceAlpha" type="matrix" values="0 0 0 0 0 0 0 0 0 0 0 0 0 0 0 0 0 0 127 0" result="hardAlpha"/>
<feOffset dy="16.4741"/>
<feGaussianBlur stdDeviation="16.4741"/>
<feColorMatrix type="matrix" values="0 0 0 0 0 0 0 0 0 0 0 0 0 0 0 0 0 0 0.27 0"/>
<feBlend mode="normal" in2="BackgroundImageFix" result="effect1_dropShadow_401_30215"/>
<feBlend mode="normal" in="SourceGraphic" in2="effect1_dropShadow_401_30215" result="shape"/>
</filter>
</defs>
</svg>
