<svg width="298" height="272" viewBox="0 0 298 272" fill="none" xmlns="http://www.w3.org/2000/svg">
<path d="M152.897 269.575C217.082 269.575 269.117 217.54 269.117 153.126C269.117 88.7124 216.852 36.677 152.897 36.677C88.7124 36.677 36.677 88.7124 36.677 153.126C36.677 217.54 88.7124 269.575 152.897 269.575Z" fill="#383838"/>
<path d="M260.636 77.0213C265.826 77.0213 270.034 72.8135 270.034 67.6228C270.034 62.4322 265.826 58.2244 260.636 58.2244C255.445 58.2244 251.237 62.4322 251.237 67.6228C251.237 72.8135 255.445 77.0213 260.636 77.0213Z" fill="#F1F3F9"/>
<path d="M274.389 40.3445C277.934 40.3445 280.807 37.4708 280.807 33.926C280.807 30.3812 277.934 27.5076 274.389 27.5076C270.844 27.5076 267.97 30.3812 267.97 33.926C267.97 37.4708 270.844 40.3445 274.389 40.3445Z" fill="#3A3A3A"/>
<path d="M27.0493 93.0676C30.5941 93.0676 33.4678 90.194 33.4678 86.6492C33.4678 83.1044 30.5941 80.2307 27.0493 80.2307C23.5045 80.2307 20.6309 83.1044 20.6309 86.6492C20.6309 90.194 23.5045 93.0676 27.0493 93.0676Z" fill="#3A3A3A"/>
<path d="M62.3507 271.409C68.9339 271.409 74.2707 266.072 74.2707 259.489C74.2707 252.906 68.9339 247.569 62.3507 247.569C55.7674 247.569 50.4307 252.906 50.4307 259.489C50.4307 266.072 55.7674 271.409 62.3507 271.409Z" fill="#3A3A3A"/>
<path d="M149.813 245.816C202.613 245.816 245.626 203.061 245.626 150.26C245.626 97.4599 202.613 54.7046 149.813 54.7046C97.0129 54.7046 54 97.4599 54 150.26C54 203.061 96.7553 245.816 149.813 245.816Z" fill="url(#paint0_linear_401_29248)"/>
<path d="M129.785 145.585L134.266 141.094C135.573 139.784 135.573 137.538 134.266 136.229C132.959 134.919 130.719 134.919 129.412 136.229L124.931 140.72L120.45 136.229C119.143 134.919 116.903 134.919 115.596 136.229C114.289 137.538 114.289 139.784 115.596 141.094L120.077 145.585L115.596 150.076C114.289 151.386 114.289 153.631 115.596 154.941C116.342 155.69 117.089 155.877 118.023 155.877C118.956 155.877 119.703 155.503 120.45 154.941L124.931 150.45L129.412 154.941C130.159 155.69 130.905 155.877 131.839 155.877C132.772 155.877 133.519 155.503 134.266 154.941C135.573 153.631 135.573 151.386 134.266 150.076L129.785 145.585Z" fill="#333333"/>
<path d="M177.317 145.585L182.296 141.094C183.748 139.784 183.748 137.538 182.296 136.229C180.844 134.919 178.354 134.919 176.902 136.229L171.923 140.72L166.944 136.229C165.492 134.919 163.003 134.919 161.551 136.229C160.099 137.538 160.099 139.784 161.551 141.094L166.53 145.585L161.551 150.076C160.099 151.386 160.099 153.631 161.551 154.941C162.381 155.69 163.21 155.877 164.248 155.877C165.285 155.877 166.115 155.503 166.944 154.941L171.923 150.45L176.902 154.941C177.732 155.69 178.562 155.877 179.599 155.877C180.636 155.877 181.466 155.503 182.296 154.941C183.748 153.631 183.748 151.386 182.296 150.076L177.317 145.585Z" fill="#333333"/>
<path fill-rule="evenodd" clip-rule="evenodd" d="M47.534 55.1348C48.0713 53.0211 50.2204 51.7431 52.3342 52.2804L67.2804 56.0795C69.3942 56.6168 70.6722 58.7659 70.1349 60.8797C69.5976 62.9935 67.4485 64.2715 65.3347 63.7342L50.3885 59.935C48.2747 59.3977 46.9967 57.2486 47.534 55.1348Z" fill="#737373"/>
<path fill-rule="evenodd" clip-rule="evenodd" d="M60.2337 13.1011C62.0382 11.8762 64.4941 12.3461 65.7189 14.1507L83.5862 40.4733C84.811 42.2778 84.3411 44.7337 82.5366 45.9585C80.732 47.1834 78.2762 46.7135 77.0513 44.909L59.1841 18.5864C57.9592 16.7818 58.4291 14.326 60.2337 13.1011Z" fill="#737373"/>
<path fill-rule="evenodd" clip-rule="evenodd" d="M93.3775 1.22933C95.517 0.805853 97.5947 2.19696 98.0182 4.33645L104.195 35.5448C104.619 37.6843 103.228 39.7619 101.088 40.1854C98.9487 40.6089 96.871 39.2178 96.4475 37.0783L90.2704 5.86999C89.8469 3.7305 91.238 1.6528 93.3775 1.22933Z" fill="#737373"/>
<rect x="124" y="177" width="53" height="7" fill="#333333"/>
<path d="M155.877 178.8H165.046V190.262C165.046 192.794 162.994 194.846 160.462 194.846C157.93 194.846 155.877 192.794 155.877 190.262V178.8Z" fill="#333333"/>
<path d="M276.439 78.0869C275.461 82.2054 273.995 86.1654 272.204 89.8087C267.48 98.3625 260.475 105.332 251.679 109.609C242.557 114.203 231.806 115.787 220.892 113.728C195.48 108.5 179.028 84.423 184.403 59.5537C189.779 34.6844 214.376 18.6857 239.95 23.913C249.072 25.8138 257.054 30.0907 263.733 36.2684C274.81 47.3567 279.534 63.0386 276.439 78.0869Z" />
<path d="M230.377 37.8228C234.55 37.8228 237.514 41.6887 237.235 46.1743V46.1851L237.234 46.1948L235.371 69.3081C235.207 72.0526 233.089 74.5005 230.377 74.5005C227.664 74.5003 225.547 72.0525 225.384 69.3081L223.52 46.1948L223.519 46.186V46.1763C223.24 41.8461 226.191 37.8229 230.377 37.8228Z" fill="white" stroke="white" stroke-width="2.29231"/>
<path d="M230.377 83.6689C234.193 83.6689 237.254 86.7293 237.254 90.5459C237.254 94.3627 234.193 97.4229 230.377 97.4229C226.56 97.4227 223.5 94.3626 223.5 90.5459C223.5 86.7294 226.56 83.6691 230.377 83.6689Z" fill="white" stroke="white" stroke-width="2.29231"/>
<defs>
<linearGradient id="paint0_linear_401_29248" x1="77.3513" y1="94.3994" x2="109.436" y2="119.198" gradientUnits="userSpaceOnUse">
<stop stop-color="#9A9A9A"/>
<stop offset="0.9942" stop-color="#717171"/>
</linearGradient>
</defs>
</svg>
