<svg width="24" height="24" viewBox="0 0 24 24" fill="none" xmlns="http://www.w3.org/2000/svg">
<path fill-rule="evenodd" clip-rule="evenodd" d="M6.32759 8.3474L6.93059 15.5194C6.97459 16.0714 7.42559 16.4854 7.97659 16.4854H7.98059H18.8916H18.8936C19.4146 16.4854 19.8596 16.0974 19.9336 15.5824L20.8836 9.0234C20.9056 8.8674 20.8666 8.7114 20.7716 8.5854C20.6776 8.4584 20.5396 8.3764 20.3836 8.3544C20.1746 8.3624 11.5016 8.3504 6.32759 8.3474ZM7.97459 17.9854C6.65759 17.9854 5.54259 16.9574 5.43559 15.6424L4.51959 4.7484L3.01259 4.4884C2.60359 4.4164 2.33059 4.0294 2.40059 3.6204C2.47259 3.2114 2.86759 2.9454 3.26759 3.0094L5.34759 3.3694C5.68259 3.4284 5.93759 3.7064 5.96659 4.0464L6.20159 6.8474C20.4776 6.8534 20.5236 6.8604 20.5926 6.8684C21.1496 6.9494 21.6396 7.2404 21.9736 7.6884C22.3076 8.1354 22.4476 8.6864 22.3676 9.2384L21.4186 15.7964C21.2396 17.0444 20.1556 17.9854 18.8956 17.9854H18.8906H7.98259H7.97459Z" fill="#212121"/>
<path fill-rule="evenodd" clip-rule="evenodd" d="M17.2874 12.0437H14.5154C14.1004 12.0437 13.7654 11.7077 13.7654 11.2937C13.7654 10.8797 14.1004 10.5437 14.5154 10.5437H17.2874C17.7014 10.5437 18.0374 10.8797 18.0374 11.2937C18.0374 11.7077 17.7014 12.0437 17.2874 12.0437Z" fill="#212121"/>
<path fill-rule="evenodd" clip-rule="evenodd" d="M7.54451 20.7019C7.84551 20.7019 8.08851 20.9449 8.08851 21.2459C8.08851 21.5469 7.84551 21.7909 7.54451 21.7909C7.24251 21.7909 6.99951 21.5469 6.99951 21.2459C6.99951 20.9449 7.24251 20.7019 7.54451 20.7019Z" fill="#212121"/>
<mask id="mask0_401_46180" style="mask-type:luminance" maskUnits="userSpaceOnUse" x="6" y="20" width="3" height="2">
<path fill-rule="evenodd" clip-rule="evenodd" d="M6.99878 21.2455C6.99878 21.5475 7.24178 21.7915 7.54478 21.7915C7.84578 21.7915 8.08878 21.5475 8.08878 21.2455C8.08878 20.9445 7.84578 20.7015 7.54478 20.7015C7.24178 20.7015 6.99878 20.9445 6.99878 21.2455Z" fill="white"/>
</mask>
<g mask="url(#mask0_401_46180)">
<path fill-rule="evenodd" clip-rule="evenodd" d="M1.99976 26.7905H13.0888V15.7015H1.99976V26.7905Z" fill="#212121"/>
</g>
<path fill-rule="evenodd" clip-rule="evenodd" d="M7.54351 21.0408C7.43051 21.0408 7.33851 21.1328 7.33851 21.2458C7.33851 21.4728 7.74951 21.4728 7.74951 21.2458C7.74951 21.1328 7.65651 21.0408 7.54351 21.0408ZM7.54351 22.5408C6.82951 22.5408 6.24951 21.9598 6.24951 21.2458C6.24951 20.5318 6.82951 19.9518 7.54351 19.9518C8.25751 19.9518 8.83851 20.5318 8.83851 21.2458C8.83851 21.9598 8.25751 22.5408 7.54351 22.5408Z" fill="#212121"/>
<path fill-rule="evenodd" clip-rule="evenodd" d="M18.8248 20.7019C19.1258 20.7019 19.3698 20.9449 19.3698 21.2459C19.3698 21.5469 19.1258 21.7909 18.8248 21.7909C18.5228 21.7909 18.2798 21.5469 18.2798 21.2459C18.2798 20.9449 18.5228 20.7019 18.8248 20.7019Z" fill="#212121"/>
<mask id="mask1_401_46180" style="mask-type:luminance" maskUnits="userSpaceOnUse" x="18" y="20" width="2" height="2">
<path fill-rule="evenodd" clip-rule="evenodd" d="M18.2798 21.2455C18.2798 21.5475 18.5228 21.7915 18.8248 21.7915C19.1248 21.7915 19.3698 21.5475 19.3698 21.2455C19.3698 20.9445 19.1248 20.7015 18.8248 20.7015C18.5228 20.7015 18.2798 20.9445 18.2798 21.2455Z" fill="white"/>
</mask>
<g mask="url(#mask1_401_46180)">
<path fill-rule="evenodd" clip-rule="evenodd" d="M13.2798 26.7905H24.3698V15.7015H13.2798V26.7905Z" fill="#212121"/>
</g>
<path fill-rule="evenodd" clip-rule="evenodd" d="M18.8238 21.0408C18.7118 21.0408 18.6198 21.1328 18.6198 21.2458C18.6208 21.4748 19.0308 21.4728 19.0298 21.2458C19.0298 21.1328 18.9368 21.0408 18.8238 21.0408ZM18.8238 22.5408C18.1098 22.5408 17.5298 21.9598 17.5298 21.2458C17.5298 20.5318 18.1098 19.9518 18.8238 19.9518C19.5388 19.9518 20.1198 20.5318 20.1198 21.2458C20.1198 21.9598 19.5388 22.5408 18.8238 22.5408Z" fill="#212121"/>
</svg>
